<svg height="41.692" viewBox="0 0 156.449 41.692" width="156.449" xmlns="http://www.w3.org/2000/svg"><g fill-rule="evenodd"><path d="m32.185 123.771h.376l1.013 2.85 1.018-2.85h.374l-1.166 3.178h-.454l-1.164-3.178zm6.263 0h.352v2.085a1.883 1.883 0 0 0 .033.429.413.413 0 0 0 .115.2.492.492 0 0 0 .2.108 1.865 1.865 0 0 0 .409.031h.343a1.891 1.891 0 0 0 .412-.031.493.493 0 0 0 .2-.108.4.4 0 0 0 .111-.194 1.989 1.989 0 0 0 .032-.432v-2.085h.354v2.126a.9.9 0 0 1 -1.089 1.088h-.384a.9.9 0 0 1 -1.088-1.088v-2.128zm6.372 3.178v-3.178h.346v2.845h1.8v.334zm5.683 0v-3.178h.542l1.723 2.836v-2.836h.35v3.178h-.542l-1.724-2.842v2.842zm6.46 0v-3.178h2.229v.336h-1.879v1.04h1.826v.325h-1.826v1.143h1.879v.334zm7.231-2.842h-1.014v1.273h1.015a.92.92 0 0 0 .52-.1.431.431 0 0 0 .123-.353v-.371a.436.436 0 0 0 -.119-.354.929.929 0 0 0 -.523-.1zm-1.364 2.842v-3.178h1.435a1.248 1.248 0 0 1 .737.159.683.683 0 0 1 .2.567v.48a.665.665 0 0 1 -.1.392.453.453 0 0 1 -.309.177.5.5 0 0 1 .318.195.837.837 0 0 1 .091.444v.765h-.367v-.655a.715.715 0 0 0 -.108-.462.563.563 0 0 0 -.422-.121h-1.125v1.239zm6.57-1.127h1.377l-.634-1.715h-.113l-.629 1.715zm-.777 1.127 1.174-3.178h.578l1.18 3.178h-.363l-.3-.814h-1.608l-.3.814zm6.787-1.807h1.146a.523.523 0 0 0 .376-.1.687.687 0 0 0 .1-.441c0-.218-.034-.355-.1-.41a.994.994 0 0 0 -.523-.084h-.992v1.035zm0 1.473h1.16a.669.669 0 0 0 .425-.1q.108-.1.108-.505a.588.588 0 0 0 -.121-.445 1.188 1.188 0 0 0 -.632-.1h-.939v1.148zm-.346.334v-3.178h1.48a1.044 1.044 0 0 1 .68.155.88.88 0 0 1 .168.636 1.15 1.15 0 0 1 -.082.517.438.438 0 0 1 -.289.2.546.546 0 0 1 .351.228 1.117 1.117 0 0 1 .1.549.924.924 0 0 1 -.207.706 1.325 1.325 0 0 1 -.83.182zm6.129 0v-3.178h.346v2.845h1.8v.334zm5.683 0v-3.178h2.229v.336h-1.878v1.04h1.826v.325h-1.826v1.143h1.879v.334zm7.7-1.807h1.147a.523.523 0 0 0 .376-.1.687.687 0 0 0 .1-.441q0-.327-.1-.41a1 1 0 0 0 -.523-.084h-.992v1.035zm0 1.473h1.16a.667.667 0 0 0 .425-.1q.108-.1.108-.505a.585.585 0 0 0 -.121-.445 1.185 1.185 0 0 0 -.632-.1h-.939v1.148zm-.346.334v-3.178h1.48a1.044 1.044 0 0 1 .68.155.883.883 0 0 1 .168.636 1.15 1.15 0 0 1 -.082.517.439.439 0 0 1 -.289.2.545.545 0 0 1 .351.228 1.117 1.117 0 0 1 .1.549.922.922 0 0 1 -.208.706 1.324 1.324 0 0 1 -.829.182zm7.141 0h-.346v-1.407l-1.314-1.772h.414l1.072 1.481 1.072-1.481h.417l-1.314 1.765v1.413zm6.063 0v-3.178h1.534a1.183 1.183 0 0 1 .839.237 1.137 1.137 0 0 1 .241.827v1.047a1.141 1.141 0 0 1 -.242.829 1.176 1.176 0 0 1 -.838.239zm.349-.314h1.127a.888.888 0 0 0 .615-.156.845.845 0 0 0 .156-.593v-1.027a.9.9 0 0 0 -.154-.616.886.886 0 0 0 -.616-.156h-1.127v2.548zm6 .314v-3.178h2.229v.336h-1.879v1.04h1.826v.325h-1.826v1.143h1.879v.334zm5.779-1.035h.354v.059a1.488 1.488 0 0 0 .043.419.315.315 0 0 0 .141.19.686.686 0 0 0 .237.061q.16.018.66.017a1.968 1.968 0 0 0 .421-.035.439.439 0 0 0 .222-.114.3.3 0 0 0 .059-.145 1.567 1.567 0 0 0 .019-.278.854.854 0 0 0 -.072-.445.392.392 0 0 0 -.283-.107l-.98-.077a.9.9 0 0 1 -.608-.22.925.925 0 0 1 -.169-.626 1.451 1.451 0 0 1 .056-.446.639.639 0 0 1 .179-.28.576.576 0 0 1 .269-.121 3.591 3.591 0 0 1 .61-.035h.114a3.406 3.406 0 0 1 .688.047.776.776 0 0 1 .334.163.445.445 0 0 1 .136.218 1.234 1.234 0 0 1 .043.353v.1s0 .042 0 .059h-.354v-.079a1.343 1.343 0 0 0 -.02-.268.28.28 0 0 0 -.065-.138.439.439 0 0 0 -.236-.093 5.068 5.068 0 0 0 -.644-.027 1.08 1.08 0 0 0 -.618.111.593.593 0 0 0 -.125.445.632.632 0 0 0 .082.377.434.434 0 0 0 .317.122l1 .084a.8.8 0 0 1 .551.216.931.931 0 0 1 .158.61 2.008 2.008 0 0 1 -.041.468.621.621 0 0 1 -.134.262.615.615 0 0 1 -.311.182 3.161 3.161 0 0 1 -.712.053h-.158a2.94 2.94 0 0 1 -.622-.046.7.7 0 0 1 -.3-.155.589.589 0 0 1 -.175-.277 1.451 1.451 0 0 1 -.057-.445v-.155zm6.276 1.035v-3.178h.354v3.178zm4.073-2.129a1.148 1.148 0 0 1 .252-.849 1.294 1.294 0 0 1 .892-.239h.4a1.5 1.5 0 0 1 .865.2.711.711 0 0 1 .279.622v.134h-.363v-.04a.547.547 0 0 0 -.167-.457 1.105 1.105 0 0 0 -.636-.129h-.28a2.119 2.119 0 0 0 -.47.037.594.594 0 0 0 -.244.121.429.429 0 0 0 -.129.212 2.018 2.018 0 0 0 -.037.475v.9a2.026 2.026 0 0 0 .037.475.43.43 0 0 0 .129.211.608.608 0 0 0 .24.122 2.162 2.162 0 0 0 .474.036h.28a1.923 1.923 0 0 0 .428-.032.535.535 0 0 0 .218-.108.4.4 0 0 0 .12-.2 1.794 1.794 0 0 0 .036-.431v-.2h-.882v-.322h1.247v.531a1.147 1.147 0 0 1 -.252.85 1.294 1.294 0 0 1 -.892.239h-.4a1.294 1.294 0 0 1 -.892-.239 1.147 1.147 0 0 1 -.252-.85v-1.069zm6.4 2.129v-3.178h.542l1.723 2.836v-2.836h.35v3.178h-.543l-1.723-2.842v2.842z" fill="#fff" transform="translate(17.518 -86.285)"/><path d="m88.278 89.195v-22.842l2.538-2.069v27.66c0 .286-.148.455-.53.454h-2.108a.5.5 0 0 1 -.441-.206l-9.529-9.341v9.078a.418.418 0 0 1 -.482.469h-1.592c-.289 0-.484-.114-.473-.484v-11.757c0-.234.1-.353.314-.355h2.718l9.584 9.392zm-22.18.82h8.477a.4.4 0 0 1 .441.45v1.46q0 .467-.441.473h-10.575a.409.409 0 0 1 -.449-.448v-11.766c0-.259.127-.381.367-.381h1.773c.281 0 .4.125.406.335v9.877zm-18.546-9.7a.479.479 0 0 1 .371-.508h1.787a.48.48 0 0 1 .428.365v7.628a6.133 6.133 0 0 0 .078 1.2 1.452 1.452 0 0 0 .223.517 1.137 1.137 0 0 0 .585.423 4.438 4.438 0 0 0 1.366.165h4.717a4.437 4.437 0 0 0 1.369-.165 1.186 1.186 0 0 0 .593-.429 1.359 1.359 0 0 0 .214-.511 6.179 6.179 0 0 0 .077-1.2v-7.637a.321.321 0 0 1 .366-.361h1.786c.3 0 .436.124.433.361v7.552a8.034 8.034 0 0 1 -.279 2.312 3.326 3.326 0 0 1 -.963 1.565 3.4 3.4 0 0 1 -1.555.749 12.73 12.73 0 0 1 -2.634.2h-3.5a12.65 12.65 0 0 1 -2.622-.2 3.574 3.574 0 0 1 -1.572-.741 3.268 3.268 0 0 1 -.986-1.525 7.619 7.619 0 0 1 -.282-2.276v-7.489zm-.222.255-6.43 11.568a.472.472 0 0 1 -.36.26h-2.033c-.154 0-.271-.089-.39-.295l-6.417-11.556c-.076-.453.111-.677.479-.744h1.8a.384.384 0 0 1 .315.212l5.2 9.447 5.353-9.662h2.062c.439.124.486.42.422.765z" fill="#fff" transform="translate(17.737 -60.399)"/><path d="m184.077 83.017a2.106 2.106 0 0 1 .46.342 2.783 2.783 0 0 1 .7 2.037v1.218a2.774 2.774 0 0 1 -1.266 2.579c-1.051.609-3.195.646-4.382.646h-8.036c-.278 0-.444-.116-.444-.4v-11.839c0-.211.091-.347.328-.353h8.424a16 16 0 0 1 2.361.12 3.663 3.663 0 0 1 1.4.47 2.419 2.419 0 0 1 .973 1.111 4.655 4.655 0 0 1 .269 1.763 3.308 3.308 0 0 1 -.536 2.056 1.981 1.981 0 0 1 -.241.25zm-10.427-3.4v2.447h5.967a8.927 8.927 0 0 0 2.469-.244c.227-.161.253-.711.253-.953a2.967 2.967 0 0 0 -.083-.814.362.362 0 0 0 -.139-.205 1.593 1.593 0 0 0 -.569-.168 13.679 13.679 0 0 0 -1.708-.063zm0 4.909v2.886h6.95a4.859 4.859 0 0 0 1.867-.262c.251-.178.28-.79.28-1.059 0-.29-.03-1.09-.287-1.293a4.644 4.644 0 0 0 -1.86-.273zm-5.4 4.511a3.4 3.4 0 0 1 -1.555.749 12.728 12.728 0 0 1 -2.634.2h-3.5a12.648 12.648 0 0 1 -2.622-.2 3.577 3.577 0 0 1 -1.567-.741 3.262 3.262 0 0 1 -.985-1.525 7.6 7.6 0 0 1 -.282-2.276v-7.644c0-.23.1-.355.339-.355h1.883a.321.321 0 0 1 .364.355v7.643a6.176 6.176 0 0 0 .077 1.2 1.463 1.463 0 0 0 .224.517 1.137 1.137 0 0 0 .585.423 4.438 4.438 0 0 0 1.366.165h4.716a4.434 4.434 0 0 0 1.369-.165 1.187 1.187 0 0 0 .593-.429 1.349 1.349 0 0 0 .213-.509 6.178 6.178 0 0 0 .077-1.2v-7.637c0-.245.138-.362.393-.364h1.835a.318.318 0 0 1 .357.36v7.553a8.034 8.034 0 0 1 -.279 2.312 3.321 3.321 0 0 1 -.963 1.565zm-26.582-6.85h9.276v-4.587a.308.308 0 0 1 .345-.353h1.876c.217 0 .325.119.325.353v11.769c0 .287-.132.471-.491.47h-1.576a.425.425 0 0 1 -.479-.479v-4.806h-9.276v4.816a.425.425 0 0 1 -.48.469h-1.588a.433.433 0 0 1 -.476-.481v-28.875l2.546-2.075z" fill="#ef6700" transform="translate(-29.048 -57.84)"/><path d="m287.705 76.637v-10.294l2.526-2.059v12.353z" fill="#fff" transform="translate(-262.305 -34.948)"/><path d="m139.138 74.065-.012-13.592 2.534-2.065-.014 15.657z" fill="#ef6700" transform="translate(-109.684 -32.373)"/><path d="m132.56 48.012-3.648-2.782 1.207-1.6a.492.492 0 0 0 -.483-.817l-5.4.712c-.471.078-.788.684-.347 1.016l6.723 5.061z" fill="#ef6700" transform="translate(-102.915 -25.536)"/><g fill="#fff"><path d="m127.663 53.255-6.263-4.588c-.593-.4-1.2-.245-1.141.488l.722 5.164q.271.7.9.3l1.255-1.51 2.541 1.762z" transform="translate(-101.413 -28.011)"/><path d="m127.945 28.751-18.6 15.163a2.781 2.781 0 0 1 -3.218.123l-18.736-13.737a1.5 1.5 0 0 1 -.011-2.492l18.6-15.163a2.781 2.781 0 0 1 3.219-.122l18.732 13.737a1.5 1.5 0 0 1 .011 2.492zm0 4.429a1.5 1.5 0 0 0 -.011-2.492l-.343-.251-2.071 1.688a1.433 1.433 0 0 1 -.558.985l-.428.348v2.5l3.411-2.779zm-5.33 4.343v-2.5l-2.586 2.108v2.5l2.586-2.109zm-11.591 9.448v-2.5l-1.93 1.573a2.371 2.371 0 0 1 -2.745.1l-1.226-.9v2.484l1 .733a2.78 2.78 0 0 0 3.218-.122l1.683-1.373zm-7.821-.646v-2.484l-2.277-1.67v2.483l2.277 1.67zm-4.2-3.078v-2.483l-2.277-1.67v2.483zm-4.2-3.078v-2.483l-2.278-1.67v2.484l2.278 1.67zm-4.2-3.078v-2.482l-.242-.178a1.3 1.3 0 0 1 -.57-1.016l-2.036-1.493-.386.315a1.5 1.5 0 0 0 .011 2.491l3.223 2.364zm.312-7.874a.439.439 0 0 0 .035.027l1.589 1.156 13.691-11.156a2.372 2.372 0 0 1 2.745-.1l13.777 10.1 1.581-1.288.022-.02-15.155-11.114a2.782 2.782 0 0 0 -3.219.123l-15.055 12.272zm37.019 8.74a1.5 1.5 0 0 0 -.011-2.492l-.343-.251-2.06 1.686a1.43 1.43 0 0 1 -.558.985l-4.933 4.021v2.5l7.916-6.452zm-16.91 13.791v-2.5l-1.93 1.573a2.371 2.371 0 0 1 -2.745.1l-15.977-11.712a1.3 1.3 0 0 1 -.57-1.016l-2.036-1.493-.386.315a1.5 1.5 0 0 0 .011 2.491l18.732 13.738a2.781 2.781 0 0 0 3.218-.122l1.683-1.373zm-17.014-20.267 1.615 1.184 10.605-8.644a2.371 2.371 0 0 1 2.745-.1l10.691 7.841 1.6-1.307-12.066-8.855a2.781 2.781 0 0 0 -3.219.123zm30.952-2.8a1.279 1.279 0 0 0 -.01-2.125l-15.977-11.717a2.372 2.372 0 0 0 -2.745.105l-15.868 12.933a1.279 1.279 0 0 0 .01 2.123l15.977 11.717a2.373 2.373 0 0 0 2.745-.1z" transform="translate(-86.721 -12.068)"/></g></g></svg>