<?xml version="1.0" standalone="no"?>
<!DOCTYPE svg PUBLIC "-//W3C//DTD SVG 20010904//EN"
 "http://www.w3.org/TR/2001/REC-SVG-20010904/DTD/svg10.dtd">
<svg version="1.0" xmlns="http://www.w3.org/2000/svg"
 width="400.000000pt" height="400.000000pt" viewBox="0 0 400.000000 400.000000"
 preserveAspectRatio="xMidYMid meet">
<metadata>
Created by potrace 1.14, written by Peter Selinger 2001-2017
</metadata>
<g transform="translate(0.000000,400.000000) scale(0.100000,-0.100000)"
fill="#000000" stroke="none">
<path d="M1830 3979 c-19 -4 -53 -10 -75 -13 -52 -8 -164 -42 -221 -66 -24
-11 -45 -19 -47 -18 -1 0 -26 -14 -55 -31 -29 -17 -55 -31 -58 -31 -13 0 -156
-110 -214 -165 -131 -124 -239 -283 -299 -440 -13 -33 -27 -69 -31 -80 -13
-29 -37 -131 -46 -195 -11 -70 -11 -318 -1 -391 l8 -56 -33 -1 c-42 -1 -82
-44 -99 -104 -18 -66 -6 -239 22 -313 25 -67 69 -145 107 -190 14 -16 47 -76
73 -132 51 -110 69 -127 130 -125 32 2 38 -2 44 -26 15 -60 68 -180 119 -266
56 -95 170 -258 209 -299 119 -126 116 -120 119 -183 l3 -59 -52 3 c-73 5
-139 -19 -230 -85 -143 -102 -172 -114 -300 -128 -28 -2 -59 -8 -70 -11 -36
-13 -73 -58 -80 -96 -4 -28 -11 -39 -27 -43 -11 -2 -46 -9 -76 -15 -30 -6 -66
-13 -80 -16 -14 -3 -34 -7 -45 -9 -136 -29 -311 -136 -391 -238 -16 -21 -35
-44 -42 -52 -6 -7 -12 -18 -12 -24 0 -6 -4 -11 -8 -11 -5 0 -16 -16 -25 -35
l-17 -35 1976 0 1975 0 -7 22 c-3 12 -13 28 -20 36 -8 7 -14 17 -14 22 0 4
-20 33 -45 63 -51 63 -145 137 -225 177 -75 38 -228 86 -333 104 -48 8 -92 18
-97 21 -6 3 -10 18 -10 33 0 37 -33 88 -69 107 -17 8 -70 19 -120 24 -105 11
-145 29 -233 106 -34 31 -80 65 -100 76 -39 20 -111 27 -164 15 l-31 -7 4 58
c3 44 9 63 26 79 161 153 355 453 413 636 17 56 17 57 56 56 30 0 46 6 69 28
16 15 29 32 29 37 0 21 63 143 104 200 57 81 101 169 117 237 16 73 17 225 0
273 -21 62 -66 97 -115 88 -5 -1 -5 15 -1 36 14 76 15 335 0 424 -88 526 -502
941 -1022 1025 -95 15 -301 17 -363 3z"/>
</g>
</svg>
